# Blender 4.5.3 LTS
# www.blender.org
mtllib Arbusto.mtl
g Arbusto.001_Arbusto.003
g Arbusto.002_Arbusto.007
v 22.734129 2.988482 -13.353355
v 22.734016 0.228687 -13.346215
v 37.167656 2.501457 -13.840866
v 37.167572 0.715958 -13.835709
v 96.160957 2.880128 -65.285393
v 96.160851 0.120334 -65.278244
v 97.036476 2.503564 -11.864877
v 97.036400 0.718065 -11.859720
v 16.885490 3.670503 -65.741547
v 16.885380 -0.198543 -65.734406
v 8.385751 3.265677 -25.526529
v 8.385672 0.370926 -25.521372
v 96.411713 3.668419 -65.509026
v 96.411606 0.288536 -65.501877
v 22.495745 3.288584 -13.233102
v 22.495663 0.393834 -13.227945
v -37.883675 0.187143 58.380184
v -37.883675 3.844235 58.380184
v -18.176266 0.674270 20.384010
v -18.176266 3.357066 20.384010
v -16.536942 0.187143 58.716572
v -16.536942 3.844235 58.716560
v -7.228559 0.674270 20.556524
v -7.228559 3.357066 20.556522
v 22.734135 0.233537 4.132288
v 22.734022 3.652943 4.125586
v 37.167667 0.720501 4.619855
v 37.167583 3.165611 4.615015
v 96.160980 0.335448 56.064327
v 96.160873 3.754853 56.057610
v 97.036484 0.718639 2.643847
v 97.036415 3.163749 2.639009
v 16.885513 0.473487 56.520500
v 16.885401 4.237831 56.513790
v 8.385758 0.393029 16.305529
v 8.385678 3.673351 16.300690
v 96.411736 0.475599 56.287952
v 96.411629 4.239942 56.281246
v 22.495747 0.371647 4.012095
v 22.495667 3.651969 4.007256
v -91.454765 0.604225 -21.683418
v -91.454750 3.013525 -21.683418
v -44.686737 1.091379 -11.288769
v -44.686729 2.526382 -11.288773
v -91.255219 0.604237 -0.940276
v -91.255219 3.013537 -0.940280
v -34.362057 1.091385 -0.692295
v -34.362057 2.526388 -0.692295
v -11.320336 0.177478 -66.500313
v -11.320336 3.509485 -66.500313
v -12.646129 0.664654 -16.799013
v -12.646129 3.022363 -16.799013
v -45.384930 0.177478 -67.056778
v -45.384930 3.509485 -67.056793
v -44.208061 0.664646 -32.494717
v -44.208069 3.022355 -32.494717
vn 0.0338 0.0027 0.9994
vn -0.0330 0.0029 0.9995
vn 0.9999 -0.0001 -0.0164
vn -0.5774 -0.0021 -0.8164
vn 0.0062 0.9999 0.0145
vn 0.0062 -0.9998 0.0187
vn -0.9784 -0.0003 -0.2068
vn -0.6569 0.0014 0.7540
vn 0.5774 0.0016 0.8165
vn 0.0029 -0.0020 -1.0000
vn -0.0012 1.0000 0.0074
vn 0.0040 -0.9999 0.0109
vn -0.8877 -0.0000 -0.4604
vn 0.0158 -0.0000 -0.9999
vn 0.9715 -0.0000 0.2370
vn -0.0158 -0.0000 0.9999
vn 0.0002 -0.9999 -0.0127
vn 0.0002 0.9999 -0.0127
vn 0.0338 -0.0020 -0.9994
vn -0.0330 -0.0020 -0.9995
vn 0.9999 0.0001 0.0164
vn -0.5774 0.0016 0.8164
vn 0.0062 -0.9999 -0.0146
vn 0.0062 0.9998 -0.0186
vn -0.9784 0.0003 0.2068
vn -0.6569 -0.0011 -0.7540
vn 0.5774 -0.0013 -0.8164
vn 0.0029 0.0018 1.0000
vn 0.0001 -1.0000 0.0019
vn -0.0013 0.9999 -0.0113
vn 0.2170 -0.0000 -0.9762
vn 0.7162 -0.0000 -0.6979
vn -0.0044 -0.0000 1.0000
vn -1.0000 -0.0000 0.0096
vn 0.0097 -0.9999 -0.0033
vn 0.0097 0.9999 -0.0033
vn 0.9996 -0.0000 0.0267
vn -0.4453 -0.0000 0.8954
vn -0.9994 -0.0000 0.0340
vn 0.0163 -0.0000 -0.9999
vn -0.0029 -0.9999 0.0116
vn -0.0029 0.9999 0.0116
vt 0.015844 0.021703
vt 0.972438 0.021703
vt 0.972438 0.978297
vt 0.015844 0.978297
vt 0.038073 0.014636
vt 0.981458 0.014636
vt 0.981458 0.958020
vt 0.038073 0.958020
vt 0.025732 0.025732
vt 0.974267 0.025732
vt 0.974267 0.974267
vt 0.025732 0.974267
vt 0.375000 0.750000
vt 0.625000 0.750000
vt 0.625000 1.000000
vt 0.375000 1.000000
vt 0.015970 0.015970
vt 0.991843 0.015970
vt 0.991843 0.991843
vt 0.015970 0.991843
vt 0.625000 0.500000
vt 0.875000 0.500000
vt 0.875000 0.750000
vt 0.044487 0.021050
vt 0.951607 0.021050
vt 0.951607 0.928169
vt 0.044487 0.928169
vt 0.019773 0.019773
vt 0.988039 0.019773
vt 0.988039 0.988039
vt 0.019773 0.988039
vt 0.375000 0.500000
vt 0.010478 0.008525
vt 0.985616 0.008525
vt 0.985616 0.983663
vt 0.010478 0.983663
vt 0.010896 0.008943
vt 0.989104 0.008943
vt 0.989104 0.987151
vt 0.010896 0.987151
vt 0.008234 0.004328
vt 0.999579 0.004328
vt 0.999579 0.995672
vt 0.008234 0.995672
vt 0.234640 0.230734
vt 0.773172 0.230734
vt 0.773172 0.769266
vt 0.234640 0.769266
vt 0.375000 0.250000
vt 0.625000 0.250000
vt 0.127448 0.133307
vt 0.872552 0.133307
vt 0.872552 0.878411
vt 0.127448 0.878411
vt 0.278346 0.477564
vt 0.706029 0.477564
vt 0.706029 0.905248
vt 0.278346 0.905248
vt 0.036347 0.038300
vt 0.983184 0.038300
vt 0.983184 0.985137
vt 0.036347 0.985137
vt 0.011032 0.003220
vt 1.004593 0.003220
vt 1.004593 0.996780
vt 0.011032 0.996780
vt 0.021696 0.023649
vt 0.970491 0.023649
vt 0.970491 0.972444
vt 0.021696 0.972444
vt 0.059456 0.045784
vt 0.940544 0.045784
vt 0.940544 0.926872
vt 0.059456 0.926872
vt 0.059927 0.069693
vt 0.951792 0.069693
vt 0.951792 0.961557
vt 0.059927 0.961557
vt 0.022582 0.016723
vt 0.981324 0.016723
vt 0.981324 0.975465
vt 0.022582 0.975465
vt 0.081349 0.091115
vt 0.914744 0.091115
vt 0.914744 0.924510
vt 0.081349 0.924510
vt 0.125000 0.500000
vt 0.125000 0.750000
vt 0.024767 0.036485
vt 0.963515 0.036485
vt 0.963515 0.975233
vt 0.024767 0.975233
vt 0.029076 0.052513
vt 0.943580 0.052513
vt 0.943580 0.967018
vt 0.029076 0.967018
vt 0.197689 0.201595
vt 0.763249 0.201595
vt 0.763249 0.767155
vt 0.197689 0.767155
vt 0.014367 0.028038
vt 0.973915 0.028038
vt 0.973915 0.987587
vt 0.014367 0.987587
s 31
g off
g Arbusto.002_Material.018
usemtl Material.018
f 41/71/31 42/72/31 44/73/31 43/74/31
s 32
f 43/75/32 44/76/32 48/77/32 47/78/32
s 33
f 47/79/33 48/80/33 46/81/33 45/82/33
s 34
f 45/83/34 46/84/34 42/85/34 41/86/34
s 35
f 43/87/35 47/32/35 45/13/35 41/88/35
s 36
f 48/89/36 44/90/36 42/91/36 46/92/36
s 1
g Arbusto.002_Material.016
usemtl Material.016
f 1/1/1 2/2/1 4/3/1 3/4/1
s 2
f 3/5/2 4/6/2 8/7/2 7/8/2
s 3
f 7/9/3 8/10/3 6/11/3 5/12/3
s 4
f 5/13/4 6/14/4 2/15/4 1/16/4
s 5
f 3/17/5 7/18/5 5/19/5 1/20/5
s 6
f 8/21/6 4/22/6 2/23/6 6/14/6
s 7
f 9/24/7 10/25/7 12/26/7 11/27/7
s 8
f 11/28/8 12/29/8 16/30/8 15/31/8
s 9
f 15/32/9 16/21/9 14/14/9 13/13/9
s 10
f 13/33/10 14/34/10 10/35/10 9/36/10
s 11
f 11/37/11 15/38/11 13/39/11 9/40/11
s 12
f 16/41/12 12/42/12 10/43/12 14/44/12
s 13
g Arbusto.002_Material.017
usemtl Material.017
f 17/45/13 18/46/13 20/47/13 19/48/13
s 14
f 19/49/14 20/50/14 24/21/14 23/32/14
s 15
f 23/51/15 24/52/15 22/53/15 21/54/15
s 16
f 21/55/16 22/56/16 18/57/16 17/58/16
s 17
f 19/59/17 23/60/17 21/61/17 17/62/17
s 18
f 24/63/18 20/64/18 18/65/18 22/66/18
s 37
g Arbusto.002_Material.020
usemtl Material.020
f 49/93/37 50/94/37 52/95/37 51/96/37
s 38
f 51/97/38 52/98/38 56/99/38 55/100/38
s 39
f 55/32/39 56/21/39 54/14/39 53/13/39
s 40
f 53/13/40 54/14/40 50/15/40 49/16/40
s 41
f 51/87/41 55/32/41 53/13/41 49/88/41
s 42
f 56/101/42 52/102/42 50/103/42 54/104/42
s 19
g Arbusto.002_Material.021
usemtl Material.021
f 25/1/19 26/2/19 28/3/19 27/4/19
s 20
f 27/5/20 28/6/20 32/7/20 31/8/20
s 21
f 31/9/21 32/10/21 30/11/21 29/12/21
s 22
f 29/13/22 30/14/22 26/15/22 25/16/22
s 23
f 27/17/23 31/18/23 29/19/23 25/20/23
s 24
f 32/67/24 28/68/24 26/69/24 30/70/24
s 25
f 33/24/25 34/25/25 36/26/25 35/27/25
s 26
f 35/28/26 36/29/26 40/30/26 39/31/26
s 27
f 39/32/27 40/21/27 38/14/27 37/13/27
s 28
f 37/33/28 38/34/28 34/35/28 33/36/28
s 29
f 35/37/29 39/38/29 37/39/29 33/40/29
s 30
f 40/41/30 36/42/30 34/43/30 38/44/30
