# Blender 4.5.3 LTS
# www.blender.org
mtllib arco.mtl
g arco_Mesh
v -0.389267 -0.243328 3.297615
v -0.389267 0.243329 3.297615
v -0.389267 -0.243328 -3.297615
v -0.389267 0.243329 -3.297615
v 0.389267 -0.243328 3.297615
v 0.389267 0.243329 3.297615
v 0.389267 -0.243328 -3.297615
v 0.389267 0.243329 -3.297615
v 0.389267 0.243329 1.549388
v -0.389267 -0.243328 1.549388
v 0.389267 -0.243328 1.549388
v -0.389267 0.243329 1.549388
v 0.389267 0.243329 -1.506331
v -0.389267 -0.243328 -1.506331
v 0.389267 -0.243328 -1.506331
v -0.389267 0.243329 -1.506331
v -0.389267 5.271564 -3.297616
v 0.389267 5.271564 -3.297616
v -0.389267 5.271564 -1.506331
v 0.389267 5.271564 1.549388
v 0.389267 5.271564 3.297616
v -0.389267 5.271564 3.297616
v -0.389267 5.271564 1.549388
v 0.389267 5.271564 -1.506331
v -0.389267 5.795963 3.176864
v -0.389267 6.231763 2.829932
v -0.389267 6.580658 2.274519
v -0.389267 6.838280 1.509978
v -0.389267 6.983593 0.542928
v -0.389267 6.984170 -0.521851
v -0.389267 6.839693 -1.492022
v -0.389267 6.582305 -2.261131
v -0.389267 6.233160 -2.821307
v -0.389267 5.796781 -3.172743
v -0.389267 5.714650 1.445362
v -0.389267 6.052838 1.175967
v -0.389267 6.284435 0.810516
v -0.389267 6.413808 0.436665
v -0.389267 6.461991 0.134808
v -0.389267 6.461413 -0.112827
v -0.389267 6.412395 -0.411564
v -0.389267 6.282788 -0.780847
v -0.389267 6.051442 -1.141535
v -0.389267 5.713832 -1.406427
v 0.389267 5.714650 1.445362
v 0.389267 6.052838 1.175967
v 0.389267 6.284435 0.810516
v 0.389267 6.413808 0.436665
v 0.389267 6.461991 0.134808
v 0.389267 6.461413 -0.112827
v 0.389267 6.412395 -0.411564
v 0.389267 6.282788 -0.780848
v 0.389267 6.051442 -1.141535
v 0.389267 5.713832 -1.406427
v 0.389267 5.796780 -3.172742
v 0.389267 6.233159 -2.821307
v 0.389267 6.582305 -2.261131
v 0.389267 6.839692 -1.492022
v 0.389267 6.984170 -0.521851
v 0.389267 6.983593 0.542928
v 0.389267 6.838279 1.509978
v 0.389267 6.580657 2.274519
v 0.389267 6.231763 2.829932
v 0.389267 5.795963 3.176864
vn -0.0000 -0.0000 -1.0000
vn -0.0000 -0.0000 1.0000
vn -1.0000 -0.0000 -0.0000
vn -0.0000 -1.0000 -0.0000
vn 1.0000 -0.0000 -0.0000
vn -0.0000 0.2313 -0.9729
vn -0.0000 0.6272 -0.7788
vn -0.0000 0.8487 -0.5289
vn -0.0000 0.9483 -0.3174
vn -0.0000 0.9891 -0.1473
vn -0.0000 1.0000 0.0005
vn -0.0000 0.9889 0.1486
vn -0.0000 0.9476 0.3193
vn -0.0000 0.8468 0.5319
vn -0.0000 0.6228 0.7824
vn -0.0000 -0.2203 0.9754
vn -0.0000 -0.6173 0.7867
vn -0.0000 -0.8417 0.5399
vn -0.0000 -0.9436 0.3312
vn -0.0000 -0.9868 0.1619
vn -0.0000 -1.0000 0.0023
vn -0.0000 -0.9875 -0.1576
vn -0.0000 -0.9450 -0.3270
vn -0.0000 -0.8447 -0.5353
vn -0.0000 -0.6231 -0.7822
vn -0.0000 0.2244 0.9745
vn -0.0000 -0.2286 -0.9735
vt 0.625000 0.566269
vt 0.875000 0.566269
vt 0.625000 0.750000
vt 0.375000 1.000000
vt 0.375000 0.750000
vt 0.625000 0.183731
vt 0.375000 0.250000
vt 0.375000 0.183731
vt 0.375000 0.682099
vt 0.125000 0.750000
vt 0.125000 0.682099
vt 0.625000 0.682099
vt 0.625000 0.250000
vt 0.375000 0.500000
vt 0.625000 0.500000
vt 0.375000 0.566269
vt 0.125000 0.566269
vt 0.125000 0.500000
vt 0.625000 0.000000
vt 0.375000 0.067901
vt 0.375000 0.000000
vt 0.625000 0.931818
vt 0.625000 0.727273
vt 0.625000 0.863636
vt 0.625000 0.704545
vt 0.625000 1.000000
vt 0.625000 0.067901
vt 0.875000 0.682099
vt 0.625000 0.795455
vt 0.625000 0.681818
vt 0.625000 0.659091
vt 0.625000 0.659091
vt 0.625000 0.636364
vt 0.625000 0.590909
vt 0.625000 0.613636
vt 0.625000 0.522727
vt 0.625000 0.590909
vt 0.625000 0.568182
vt 0.625000 0.386364
vt 0.625000 0.545455
vt 0.625000 0.671569
vt 0.625000 0.661039
vt 0.625000 0.650509
vt 0.625000 0.639979
vt 0.625000 0.629449
vt 0.625000 0.618919
vt 0.625000 0.608389
vt 0.625000 0.597859
vt 0.625000 0.587329
vt 0.625000 0.576799
vt 0.875000 0.671569
vt 0.875000 0.661039
vt 0.875000 0.650509
vt 0.875000 0.639979
vt 0.875000 0.629449
vt 0.875000 0.618919
vt 0.875000 0.608389
vt 0.875000 0.597859
vt 0.875000 0.587329
vt 0.875000 0.576799
vt 0.625000 0.022727
vt 0.625000 0.045455
vt 0.625000 0.078431
vt 0.625000 0.068182
vt 0.625000 0.088961
vt 0.625000 0.090909
vt 0.625000 0.099491
vt 0.625000 0.113636
vt 0.625000 0.110021
vt 0.625000 0.131081
vt 0.625000 0.136364
vt 0.625000 0.141611
vt 0.625000 0.159091
vt 0.625000 0.152141
vt 0.625000 0.181818
vt 0.625000 0.162671
vt 0.625000 0.204545
vt 0.625000 0.173201
vt 0.625000 0.227273
vt 0.625000 0.454545
vt 0.625000 0.318182
vt 0.625000 0.120551
s 0
g off
g arco_Material
usemtl Material
f 10/1/1 20/2/1 11/2/1
f 3/3/2 8/4/2 4/5/2
f 11/6/3 6/7/3 9/8/3
f 16/9/4 8/10/4 13/11/4
f 14/12/5 4/5/5 16/9/5
f 5/13/1 2/14/1 6/7/1
f 1/15/5 12/16/5 2/14/5
f 2/14/4 9/17/4 6/18/4
f 5/13/2 22/15/2 1/15/2
f 7/19/3 13/20/3 8/21/3
f 55/22/6 17/3/6 34/23/6
f 56/24/7 34/23/7 33/25/7
f 3/3/1 18/26/1 7/26/1
f 1/15/3 23/1/3 10/1/3
f 7/19/5 24/27/5 15/27/5
f 11/6/5 21/13/5 5/13/5
f 14/12/3 17/3/3 3/3/3
f 15/28/2 19/12/2 14/12/2
f 57/29/8 33/25/8 32/30/8
f 58/23/9 32/30/9 31/31/9
f 59/32/10 31/31/10 30/33/10
f 60/34/11 30/33/11 29/35/11
f 61/36/12 29/35/12 28/37/12
f 27/38/13 61/36/13 28/37/13
f 63/39/14 27/38/14 26/40/14
f 25/36/15 63/39/15 26/40/15
f 34/23/3 19/12/3 44/41/3
f 33/25/3 44/41/3 43/42/3
f 32/30/3 43/42/3 42/43/3
f 31/31/3 42/43/3 41/44/3
f 30/33/3 41/44/3 40/45/3
f 39/46/3 30/33/3 40/45/3
f 38/47/3 29/35/3 39/46/3
f 37/48/3 28/37/3 38/47/3
f 36/49/3 27/38/3 37/48/3
f 35/50/3 26/40/3 36/49/3
f 44/41/16 24/28/16 54/51/16
f 43/42/17 54/51/17 53/52/17
f 42/43/18 53/52/18 52/53/18
f 51/54/19 42/43/19 52/53/19
f 50/55/20 41/44/20 51/54/20
f 39/46/21 50/55/21 49/56/21
f 38/47/22 49/56/22 48/57/22
f 37/48/23 48/57/23 47/58/23
f 36/49/24 47/58/24 46/59/24
f 35/50/25 46/59/25 45/60/25
f 55/61/5 24/27/5 18/19/5
f 56/62/5 54/63/5 55/61/5
f 57/64/5 53/65/5 56/62/5
f 58/66/5 52/67/5 57/64/5
f 59/68/5 51/69/5 58/66/5
f 49/70/5 59/68/5 60/71/5
f 48/72/5 60/71/5 61/73/5
f 47/74/5 61/73/5 62/75/5
f 46/76/5 62/75/5 63/77/5
f 45/78/5 63/77/5 64/79/5
f 21/13/26 25/36/26 22/15/26
f 23/1/3 25/36/3 35/50/3
f 23/1/27 45/60/27 20/2/27
f 20/6/5 64/79/5 21/13/5
f 10/1/1 23/1/1 20/2/1
f 3/3/2 7/26/2 8/4/2
f 11/6/3 5/13/3 6/7/3
f 16/9/4 4/5/4 8/10/4
f 14/12/5 3/3/5 4/5/5
f 5/13/1 1/15/1 2/14/1
f 1/15/5 10/1/5 12/16/5
f 2/14/4 12/16/4 9/17/4
f 5/13/2 21/13/2 22/15/2
f 7/19/3 15/27/3 13/20/3
f 55/22/6 18/26/6 17/3/6
f 56/24/7 55/22/7 34/23/7
f 3/3/1 17/3/1 18/26/1
f 1/15/3 22/15/3 23/1/3
f 7/19/5 18/19/5 24/27/5
f 11/6/5 20/6/5 21/13/5
f 14/12/3 19/12/3 17/3/3
f 15/28/2 24/28/2 19/12/2
f 57/29/8 56/24/8 33/25/8
f 58/23/9 57/29/9 32/30/9
f 59/32/10 58/23/10 31/31/10
f 60/34/11 59/32/11 30/33/11
f 61/36/12 60/34/12 29/35/12
f 27/38/13 62/80/13 61/36/13
f 63/39/14 62/80/14 27/38/14
f 25/36/15 64/81/15 63/39/15
f 34/23/3 17/3/3 19/12/3
f 33/25/3 34/23/3 44/41/3
f 32/30/3 33/25/3 43/42/3
f 31/31/3 32/30/3 42/43/3
f 30/33/3 31/31/3 41/44/3
f 39/46/3 29/35/3 30/33/3
f 38/47/3 28/37/3 29/35/3
f 37/48/3 27/38/3 28/37/3
f 36/49/3 26/40/3 27/38/3
f 35/50/3 25/36/3 26/40/3
f 44/41/16 19/12/16 24/28/16
f 43/42/17 44/41/17 54/51/17
f 42/43/18 43/42/18 53/52/18
f 51/54/19 41/44/19 42/43/19
f 50/55/20 40/45/20 41/44/20
f 39/46/21 40/45/21 50/55/21
f 38/47/22 39/46/22 49/56/22
f 37/48/23 38/47/23 48/57/23
f 36/49/24 37/48/24 47/58/24
f 35/50/25 36/49/25 46/59/25
f 55/61/5 54/63/5 24/27/5
f 56/62/5 53/65/5 54/63/5
f 57/64/5 52/67/5 53/65/5
f 58/66/5 51/69/5 52/67/5
f 59/68/5 50/82/5 51/69/5
f 49/70/5 50/82/5 59/68/5
f 48/72/5 49/70/5 60/71/5
f 47/74/5 48/72/5 61/73/5
f 46/76/5 47/74/5 62/75/5
f 45/78/5 46/76/5 63/77/5
f 21/13/26 64/81/26 25/36/26
f 23/1/3 22/15/3 25/36/3
f 23/1/27 35/50/27 45/60/27
f 20/6/5 45/78/5 64/79/5
