# Blender 4.5.3 LTS
# www.blender.org
mtllib Pasto.mtl
g Arbusto.001_Arbusto.003
g Plane.003_Plane.009
v -8.481335 -0.180807 10.306023
v -94.881546 -0.180807 10.306023
v -8.481335 -0.180807 64.419159
v -94.881546 -0.180807 64.419159
v 96.854568 -0.180807 10.306026
v 10.454350 -0.180807 10.306026
v 96.854568 -0.180807 64.419174
v 10.454350 -0.180807 64.419174
v -8.737591 -0.180807 -60.025314
v -95.137802 -0.180807 -60.025314
v -8.737591 -0.180807 -5.912174
v -95.137802 -0.180807 -5.912174
v 96.598312 -0.180807 -61.483379
v 10.198086 -0.180807 -61.483379
v 96.598312 -0.180807 -7.370235
v 10.198086 -0.180807 -7.370235
vn -0.0000 1.0000 -0.0000
vt 0.000000 0.000000
vt 1.000000 0.000000
vt 1.000000 1.000000
vt 0.000000 1.000000
s 0
g off
g Plane.003_Material.025
usemtl Material.025
f 9/1/1 10/2/1 12/3/1 11/4/1
g Plane.003_Material.028
usemtl Material.028
f 1/1/1 2/2/1 4/3/1 3/4/1
g Plane.003_Material.034
usemtl Material.034
f 13/1/1 14/2/1 16/3/1 15/4/1
g Plane.003_Material.036
usemtl Material.036
f 5/1/1 6/2/1 8/3/1 7/4/1
