# Blender 4.5.3 LTS
# www.blender.org
mtllib Pino.mtl
g Cylinder_Cylinder.001
v 0.000000 0.115019 2.047567
v -0.832821 4.210152 1.870545
v -1.521638 0.115019 1.370090
v -1.947352 4.210152 0.632732
v -2.036350 0.115019 -0.214029
v -1.773245 4.210152 -1.023784
v -1.203529 0.115018 -1.656516
v -0.425713 4.210151 -2.002822
v 0.425713 4.210152 -2.002822
v 1.203530 0.115019 -1.656516
v 1.773244 4.210152 -1.023784
v 2.036350 0.115019 -0.214029
v 1.947351 4.210152 0.632732
v 1.521639 0.115019 1.370090
v 0.832820 4.210152 1.870545
v -0.000000 4.019252 6.090211
v -2.330623 4.019251 5.626621
v -4.306430 4.019251 4.306429
v -5.626622 4.019250 2.330623
v -6.090211 4.019250 -0.000000
v -5.626622 4.019250 -2.330623
v -4.306430 4.019249 -4.306430
v -2.330623 4.019249 -5.626622
v -0.000000 4.019250 -6.090212
v 2.330623 4.019250 -5.626622
v 4.306430 4.019250 -4.306430
v 5.626622 4.019251 -2.330623
v 6.090211 4.019251 -0.000000
v 5.626622 4.019251 2.330623
v 4.306430 4.019252 4.306429
v 2.330623 4.019252 5.626621
v -0.000001 8.114380 -0.000001
v -0.000000 6.947119 5.538039
v -2.119317 6.947118 5.116480
v -3.915986 6.947118 3.915985
v -5.116482 6.947118 2.119315
v -5.538040 6.947117 -0.000001
v -5.116482 6.947117 -2.119317
v -3.915986 6.947117 -3.915986
v -2.119317 6.947117 -5.116482
v -0.000000 6.947117 -5.538041
v 2.119316 6.947117 -5.116482
v 3.915985 6.947117 -3.915986
v 5.116481 6.947118 -2.119317
v 5.538039 6.947118 -0.000001
v 5.116481 6.947119 2.119315
v 3.915985 6.947119 3.915985
v 2.119316 6.947119 5.116480
v -0.000001 11.042248 -0.000001
v -0.000001 9.426529 4.325179
v -1.655175 9.426529 3.995944
v -3.058365 9.426528 3.058363
v -3.995946 9.426528 1.655174
v -4.325181 9.426527 -0.000001
v -3.995946 9.426527 -1.655176
v -3.058365 9.426527 -3.058365
v -1.655175 9.426527 -3.995947
v -0.000001 9.426527 -4.325181
v 1.655174 9.426527 -3.995947
v 3.058363 9.426528 -3.058365
v 3.995945 9.426528 -1.655176
v 4.325180 9.426529 -0.000001
v 3.995945 9.426529 1.655174
v 3.058363 9.426529 3.058363
v 1.655174 9.426529 3.995944
v -0.000001 13.521658 -0.000002
v -0.000001 12.155223 3.448272
v -1.319598 12.155222 3.185788
v -2.438299 12.155222 2.438296
v -3.185791 12.155222 1.319596
v -3.448274 12.155222 -0.000002
v -3.185791 12.155221 -1.319599
v -2.438299 12.155221 -2.438299
v -1.319598 12.155221 -3.185791
v -0.000001 12.155221 -3.448275
v 1.319597 12.155222 -3.185791
v 2.438297 12.155222 -2.438299
v 3.185789 12.155222 -1.319599
v 3.448272 12.155222 -0.000002
v 3.185789 12.155223 1.319596
v 2.438297 12.155223 2.438296
v 1.319597 12.155223 3.185788
v -0.000001 16.250351 -0.000002
vn -0.0000 -0.0843 -0.9964
vn -0.8652 -0.0432 -0.4995
vn -0.5872 0.0432 -0.8083
vn 0.5872 0.0432 -0.8083
vn -0.1103 0.8248 0.5546
vn 0.8652 -0.0432 -0.4995
vn 0.9502 -0.0432 0.3087
vn 0.4064 -0.0432 0.9127
vn 0.7425 0.0432 0.6685
vn -0.0000 1.0000 -0.0000
vn -0.4064 -0.0432 0.9127
vn -0.0000 -1.0000 -0.0000
vn -0.9936 0.0432 -0.1044
vn -0.7425 0.0432 0.6685
vn -0.3142 0.8248 0.4702
vn -0.4702 0.8248 0.3142
vn -0.5546 0.8248 0.1103
vn -0.5546 0.8248 -0.1103
vn -0.4702 0.8248 -0.3142
vn -0.3142 0.8248 -0.4702
vn -0.1103 0.8248 -0.5546
vn 0.1103 0.8248 -0.5546
vn 0.3142 0.8248 -0.4702
vn 0.4702 0.8248 -0.3142
vn 0.5546 0.8248 -0.1103
vn 0.5546 0.8248 0.1103
vn 0.4702 0.8248 0.3142
vn 0.3142 0.8248 0.4702
vn -0.1174 0.7985 0.5904
vn 0.1103 0.8248 0.5546
vn -0.3345 0.7985 0.5006
vn -0.5006 0.7985 0.3345
vn -0.5904 0.7985 0.1174
vn -0.5904 0.7985 -0.1174
vn -0.5006 0.7985 -0.3345
vn -0.3345 0.7985 -0.5006
vn -0.1174 0.7985 -0.5904
vn 0.1174 0.7985 -0.5904
vn 0.3345 0.7985 -0.5006
vn 0.5006 0.7985 -0.3345
vn 0.5904 0.7985 -0.1174
vn 0.5904 0.7985 0.1174
vn 0.5006 0.7985 0.3345
vn 0.3345 0.7985 0.5006
vn -0.1355 0.7195 0.6812
vn 0.1174 0.7985 0.5904
vn -0.3859 0.7195 0.5775
vn -0.5775 0.7195 0.3859
vn -0.6812 0.7195 0.1355
vn -0.6812 0.7195 -0.1355
vn -0.5775 0.7195 -0.3859
vn -0.3859 0.7195 -0.5775
vn -0.1355 0.7195 -0.6812
vn 0.1355 0.7195 -0.6812
vn 0.3859 0.7195 -0.5775
vn 0.5775 0.7195 -0.3859
vn 0.6812 0.7195 -0.1355
vn 0.6812 0.7195 0.1355
vn 0.5775 0.7195 0.3859
vn 0.3859 0.7195 0.5775
vn -0.1504 0.6368 0.7562
vn 0.1355 0.7195 0.6812
vn -0.4284 0.6368 0.6411
vn -0.6411 0.6368 0.4284
vn -0.7562 0.6368 0.1504
vn -0.7562 0.6368 -0.1504
vn -0.6411 0.6368 -0.4284
vn -0.4284 0.6368 -0.6411
vn -0.1504 0.6368 -0.7562
vn 0.1504 0.6368 -0.7562
vn 0.4284 0.6368 -0.6411
vn 0.6411 0.6368 -0.4284
vn 0.7562 0.6368 -0.1504
vn 0.7562 0.6368 0.1504
vn 0.6411 0.6368 0.4284
vn 0.4284 0.6368 0.6411
vn 0.1504 0.6368 0.7562
vn -0.9502 -0.0432 0.3087
vn 0.9936 0.0432 -0.1044
vn -0.0000 0.0432 0.9991
vt 0.533333 1.000000
vt 0.608932 0.055836
vt 0.600000 0.500000
vt 0.891068 0.055836
vt 0.733333 0.500000
vt 0.666667 1.000000
vt 0.457846 0.130000
vt 0.299899 0.015245
vt 0.200101 0.015245
vt 0.042154 0.130000
vt 0.400000 0.500000
vt 0.250000 0.250000
vt 0.841844 0.471731
vt 0.250000 0.490000
vt 0.511315 0.224913
vt 0.333333 1.000000
vt 0.571645 0.410591
vt 0.266667 0.500000
vt 0.200000 1.000000
vt 0.066667 1.000000
vt 0.750000 0.490000
vt 0.133333 0.500000
vt 0.152383 0.469251
vt 0.021746 0.324164
vt 0.933333 1.000000
vt 0.928355 0.410591
vt 1.000000 0.500000
vt 0.478254 0.324164
vt 0.347617 0.469251
vt 0.866667 0.500000
vt 0.919706 0.419706
vt 0.341844 0.471731
vt 0.971731 0.341844
vt 0.419706 0.419706
vt 0.990000 0.250000
vt 0.471731 0.341844
vt 0.971731 0.158156
vt 0.490000 0.250000
vt 0.919706 0.080294
vt 0.471731 0.158156
vt 0.841844 0.028269
vt 0.419706 0.080294
vt 0.750000 0.010000
vt 0.341844 0.028269
vt 0.658156 0.028269
vt 0.250000 0.010000
vt 0.580294 0.080294
vt 0.158156 0.028269
vt 0.528269 0.158156
vt 0.080294 0.080294
vt 0.510000 0.250000
vt 0.028269 0.158156
vt 0.528269 0.341844
vt 0.010000 0.250000
vt 0.580294 0.419706
vt 0.028269 0.341844
vt 0.658156 0.471731
vt 0.080294 0.419706
vt 0.158156 0.471731
vt 0.988685 0.224913
vt 0.800000 1.000000
vt 0.466667 1.000000
s 0
g off
g Cylinder_Material.003
usemtl Material.003
f 8/1/1 10/2/1 7/3/1
f 7/4/2 5/5/2 6/6/2
f 6/7/3 8/8/3 7/3/3
f 9/9/4 11/10/4 10/11/4
f 12/15/6 10/11/6 11/16/6
f 14/17/7 12/18/7 13/19/7
f 15/20/8 1/21/8 14/22/8
f 15/23/9 14/22/9 13/24/9
f 15/23/10 11/10/10 8/8/10
f 2/25/11 3/26/11 1/27/11
f 3/26/12 7/4/12 12/15/12
f 4/28/13 6/7/13 5/5/13
f 2/29/14 4/28/14 3/30/14
f 5/60/78 3/30/78 4/61/78
f 11/10/79 13/24/79 12/18/79
f 1/27/80 15/23/80 2/25/80
f 8/1/1 9/62/1 10/2/1
f 4/28/10 2/29/10 15/23/10
f 15/23/10 13/24/10 11/10/10
f 11/10/10 9/9/10 8/8/10
f 8/8/10 6/7/10 4/28/10
f 4/28/10 15/23/10 8/8/10
f 14/17/12 1/21/12 3/26/12
f 3/26/12 5/60/12 7/4/12
f 7/4/12 10/2/12 12/15/12
f 12/15/12 14/17/12 3/26/12
g Cylinder_Material.006
usemtl Material.006
f 32/12/5 17/13/5 16/14/5
f 18/31/15 17/32/15 32/12/15
f 19/33/16 18/34/16 32/12/16
f 20/35/17 19/36/17 32/12/17
f 21/37/18 20/38/18 32/12/18
f 22/39/19 21/40/19 32/12/19
f 23/41/20 22/42/20 32/12/20
f 24/43/21 23/44/21 32/12/21
f 25/45/22 24/46/22 32/12/22
f 26/47/23 25/48/23 32/12/23
f 27/49/24 26/50/24 32/12/24
f 28/51/25 27/52/25 32/12/25
f 29/53/26 28/54/26 32/12/26
f 30/55/27 29/56/27 32/12/27
f 31/57/28 30/58/28 32/12/28
f 49/12/29 34/13/29 33/14/29
f 31/59/30 32/12/30 16/21/30
f 23/41/12 27/49/12 31/57/12
f 35/31/31 34/32/31 49/12/31
f 36/33/32 35/34/32 49/12/32
f 37/35/33 36/36/33 49/12/33
f 38/37/34 37/38/34 49/12/34
f 39/39/35 38/40/35 49/12/35
f 40/41/36 39/42/36 49/12/36
f 41/43/37 40/44/37 49/12/37
f 42/45/38 41/46/38 49/12/38
f 43/47/39 42/48/39 49/12/39
f 44/49/40 43/50/40 49/12/40
f 45/51/41 44/52/41 49/12/41
f 46/53/42 45/54/42 49/12/42
f 47/55/43 46/56/43 49/12/43
f 48/57/44 47/58/44 49/12/44
f 66/12/45 51/13/45 50/14/45
f 48/59/46 49/12/46 33/21/46
f 40/41/12 44/49/12 48/57/12
f 52/31/47 51/32/47 66/12/47
f 53/33/48 52/34/48 66/12/48
f 54/35/49 53/36/49 66/12/49
f 55/37/50 54/38/50 66/12/50
f 56/39/51 55/40/51 66/12/51
f 57/41/52 56/42/52 66/12/52
f 58/43/53 57/44/53 66/12/53
f 59/45/54 58/46/54 66/12/54
f 60/47/55 59/48/55 66/12/55
f 61/49/56 60/50/56 66/12/56
f 62/51/57 61/52/57 66/12/57
f 63/53/58 62/54/58 66/12/58
f 64/55/59 63/56/59 66/12/59
f 65/57/60 64/58/60 66/12/60
f 83/12/61 68/13/61 67/14/61
f 65/59/62 66/12/62 50/21/62
f 53/33/12 57/41/12 61/49/12
f 69/31/63 68/32/63 83/12/63
f 70/33/64 69/34/64 83/12/64
f 71/35/65 70/36/65 83/12/65
f 72/37/66 71/38/66 83/12/66
f 73/39/67 72/40/67 83/12/67
f 74/41/68 73/42/68 83/12/68
f 75/43/69 74/44/69 83/12/69
f 76/45/70 75/46/70 83/12/70
f 77/47/71 76/48/71 83/12/71
f 78/49/72 77/50/72 83/12/72
f 79/51/73 78/52/73 83/12/73
f 80/53/74 79/54/74 83/12/74
f 81/55/75 80/56/75 83/12/75
f 82/57/76 81/58/76 83/12/76
f 82/59/77 83/12/77 67/21/77
f 74/41/12 78/49/12 82/57/12
f 31/57/12 16/21/12 19/33/12
f 16/21/12 17/13/12 19/33/12
f 17/13/12 18/31/12 19/33/12
f 19/33/12 20/35/12 23/41/12
f 20/35/12 21/37/12 23/41/12
f 21/37/12 22/39/12 23/41/12
f 23/41/12 24/43/12 27/49/12
f 24/43/12 25/45/12 27/49/12
f 25/45/12 26/47/12 27/49/12
f 27/49/12 28/51/12 31/57/12
f 28/51/12 29/53/12 31/57/12
f 29/53/12 30/55/12 31/57/12
f 31/57/12 19/33/12 23/41/12
f 48/57/12 33/21/12 34/13/12
f 34/13/12 35/31/12 36/33/12
f 36/33/12 37/35/12 38/37/12
f 38/37/12 39/39/12 40/41/12
f 40/41/12 41/43/12 42/45/12
f 42/45/12 43/47/12 44/49/12
f 44/49/12 45/51/12 46/53/12
f 46/53/12 47/55/12 48/57/12
f 48/57/12 34/13/12 36/33/12
f 36/33/12 38/37/12 40/41/12
f 40/41/12 42/45/12 44/49/12
f 44/49/12 46/53/12 48/57/12
f 48/57/12 36/33/12 40/41/12
f 65/57/12 50/21/12 53/33/12
f 50/21/12 51/13/12 53/33/12
f 51/13/12 52/31/12 53/33/12
f 53/33/12 54/35/12 57/41/12
f 54/35/12 55/37/12 57/41/12
f 55/37/12 56/39/12 57/41/12
f 57/41/12 58/43/12 61/49/12
f 58/43/12 59/45/12 61/49/12
f 59/45/12 60/47/12 61/49/12
f 61/49/12 62/51/12 65/57/12
f 62/51/12 63/53/12 65/57/12
f 63/53/12 64/55/12 65/57/12
f 65/57/12 53/33/12 61/49/12
f 82/57/12 67/21/12 68/13/12
f 68/13/12 69/31/12 82/57/12
f 69/31/12 70/33/12 82/57/12
f 70/33/12 71/35/12 74/41/12
f 71/35/12 72/37/12 74/41/12
f 72/37/12 73/39/12 74/41/12
f 74/41/12 75/43/12 78/49/12
f 75/43/12 76/45/12 78/49/12
f 76/45/12 77/47/12 78/49/12
f 78/49/12 79/51/12 82/57/12
f 79/51/12 80/53/12 82/57/12
f 80/53/12 81/55/12 82/57/12
f 82/57/12 70/33/12 74/41/12
